# xmcd CD database file
#
# Track frame offsets:
#	150
#	18954
#	36472
#	56354
#
# Disc length: 892 seconds
#
# Revision: 0
# Processed by: cddbd v1.5.1PL0 Copyright (c) Steve Scherf et al.
# Submitted via: CDex 1.51
#
DISCID=2a037a04
DTITLE=特撮 - 花火
DYEAR=2003
DGENRE=Rock
TTITLE0=花火
TTITLE1=ロードムービー
TTITLE2=海上プラネタリウム
TTITLE3=やってんだかわからない美術館
EXTD=YEAR: 2003
EXTT0=
EXTT1=
EXTT2=
EXTT3=
PLAYORDER=
